<svg xmlns="http://www.w3.org/2000/svg" viewBox="0 0 1024 1024">
  <!-- Background -->
  <rect width="1024" height="1024" fill="#6D28D9"/>

  <!-- Card body -->
  <rect x="148" y="296" width="728" height="456" rx="72" fill="white" opacity="0.12"/>

  <!-- Card top stripe -->
  <rect x="148" y="296" width="728" height="130" rx="72" fill="white" opacity="0.18"/>
  <rect x="148" y="366" width="728" height="60" fill="white" opacity="0.18"/>

  <!-- Chip -->
  <rect x="216" y="488" width="100" height="76" rx="16" fill="#A78BFA" opacity="0.9"/>
  <line x1="266" y1="488" x2="266" y2="564" stroke="#6D28D9" stroke-width="3" opacity="0.5"/>
  <line x1="216" y1="526" x2="316" y2="526" stroke="#6D28D9" stroke-width="3" opacity="0.5"/>

  <!-- Check circle -->
  <circle cx="708" cy="526" r="96" fill="#A78BFA"/>
  <polyline points="668,526 700,558 752,494" fill="none" stroke="white" stroke-width="18" stroke-linecap="round" stroke-linejoin="round"/>

  <!-- Card number dots -->
  <circle cx="224" cy="648" r="14" fill="white" opacity="0.5"/>
  <circle cx="262" cy="648" r="14" fill="white" opacity="0.5"/>
  <circle cx="300" cy="648" r="14" fill="white" opacity="0.5"/>
  <circle cx="338" cy="648" r="14" fill="white" opacity="0.5"/>
  <circle cx="404" cy="648" r="14" fill="white" opacity="0.25"/>
  <circle cx="442" cy="648" r="14" fill="white" opacity="0.25"/>
  <circle cx="480" cy="648" r="14" fill="white" opacity="0.25"/>
  <circle cx="518" cy="648" r="14" fill="white" opacity="0.25"/>
</svg>
